<?xml version="1.0" encoding="UTF-8" standalone="no"?>
<!-- Created with Inkscape (http://www.inkscape.org/) -->

<svg
   version="1.1"
   id="svg1"
   width="195.84"
   height="156.48"
   viewBox="0 0 195.84 156.48"
   sodipodi:docname="istockphoto-1288288160-612x612.svg"
   inkscape:version="1.3.2 (091e20e, 2023-11-25, custom)"
   inkscape:export-filename="logo.svg"
   inkscape:export-xdpi="797.98419"
   inkscape:export-ydpi="797.98419"
   xmlns:inkscape="http://www.inkscape.org/namespaces/inkscape"
   xmlns:sodipodi="http://sodipodi.sourceforge.net/DTD/sodipodi-0.dtd"
   xmlns="http://www.w3.org/2000/svg"
   xmlns:svg="http://www.w3.org/2000/svg">
  <defs
     id="defs1">
    <inkscape:path-effect
       effect="spiro"
       id="path-effect29"
       is_visible="true"
       lpeversion="1" />
    <inkscape:path-effect
       effect="spiro"
       id="path-effect28"
       is_visible="true"
       lpeversion="1" />
  </defs>
  <sodipodi:namedview
     id="namedview1"
     pagecolor="#ffffff"
     bordercolor="#000000"
     borderopacity="0.25"
     inkscape:showpageshadow="2"
     inkscape:pageopacity="0.0"
     inkscape:pagecheckerboard="0"
     inkscape:deskcolor="#d1d1d1"
     inkscape:zoom="4.9654909"
     inkscape:cx="97.372044"
     inkscape:cy="73.003859"
     inkscape:window-width="1920"
     inkscape:window-height="991"
     inkscape:window-x="-9"
     inkscape:window-y="-9"
     inkscape:window-maximized="1"
     inkscape:current-layer="layer4"
     inkscape:export-bgcolor="#ffffff00" />
  <g
     inkscape:groupmode="layer"
     id="layer2"
     inkscape:label="Layer 1">
    <path
       style="opacity:1;fill:#ffffff;fill-opacity:1"
       d="m 34.533019,43.575686 5.909775,-0.0712 V 111.8585 l -5.76737,0.28481 z"
       id="path15" />
    <path
       style="opacity:1;fill:#ffffff;fill-opacity:1"
       d="m 44.572516,37.665912 5.76737,0.0712 -0.142404,80.102368 -5.696168,0.1424 z"
       id="path16" />
    <path
       style="opacity:1;fill:#ffffff;fill-opacity:1"
       d="m 55.039225,31.471329 -0.284809,92.349131 36.882689,0.35601 -2.990488,-6.40819 H 61.020201 l 0.284809,-79.888762 67.21478,-0.142404 0.0712,30.4745 6.40818,1.424042 -0.1424,-38.235529 z"
       id="path17" />
    <path
       style="opacity:1;fill:#ffffff;fill-opacity:1"
       d="m 66.146753,44.358909 57.673707,0.213607 0.1424,5.055349 -58.029714,0.0712 z"
       id="path18" />
    <path
       style="opacity:1;fill:#fafafa;fill-opacity:1"
       d="m 66.005558,58.063242 11.970116,-0.03776 -0.01259,0.780386 -1.309035,1.183166 -0.352432,-0.365019 -8.798224,-0.06293 0.05035,9.465328 8.93668,0.03776 0.06293,-3.587258 1.371969,-1.384556 0.06293,6.482239 -12.03305,0.100695 z"
       id="path19" />
    <path
       style="opacity:1;fill:#ffffff;fill-opacity:1"
       d="m 70.310268,62.481234 2.529962,2.479614 6.11722,-6.054286 1.220926,1.233514 -7.187104,7.111583 -3.964864,-3.687954 z"
       id="path20" />
    <path
       style="opacity:1;fill:#f5f5f5;fill-opacity:1"
       d="m 85.137604,59.007257 38.515826,-0.100695 -0.0503,3.272587 -38.767571,0.05035 z"
       id="path21" />
    <path
       style="opacity:1;fill:#ffffff;fill-opacity:1"
       d="m 84.759998,66.584554 32.687872,-0.04619 0.0356,1.815654 -5.48256,1.424042 -27.163606,-0.106803 z"
       id="path22" />
    <path
       style="opacity:1;fill:#ffffff;fill-opacity:1"
       d="m 84.908506,78.678323 11.85515,0.0712 -2.420871,2.954887 -9.541082,0.178005 z"
       id="path23" />
    <path
       style="opacity:1;fill:#ffffff;fill-opacity:1"
       d="m 84.766102,86.154543 h 6.408189 l -1.70885,3.02609 -4.628137,0.249207 z"
       id="path24" />
    <path
       style="opacity:1;fill:#ffffff;fill-opacity:1"
       d="m 84.734824,98.378994 h 2.114595 l -0.453128,3.121546 -1.460077,0.0503 -0.151042,-2.920159 z"
       id="path25" />
    <path
       style="opacity:1;fill:#ffffff;fill-opacity:1"
       d="m 84.885866,105.98146 1.359383,-0.10069 0.151042,3.0712 -1.661467,0.0503 z"
       id="path26" />
  </g>
  <g
     inkscape:groupmode="layer"
     id="layer3"
     inkscape:label="Layer 2">
    <path
       style="opacity:1;fill:#ffffff;fill-opacity:1"
       d="m 91.565903,103.81266 c 0.320491,-7.259392 3.233606,-14.3777 8.094564,-19.778864 4.860953,-5.401165 11.634143,-9.045558 18.819833,-10.126014 8.69576,-1.307513 17.8981,1.214713 24.71217,6.772974 6.81407,5.55826 11.13388,14.066008 11.6009,22.847104 0.44748,8.41368 -2.63454,16.95966 -8.34938,23.15085 -5.71484,6.1912 -13.98738,9.94614 -22.40993,10.17173 -8.65746,0.23188 -17.35158,-3.27781 -23.42197,-9.45483 -6.070398,-6.17703 -9.428165,-14.93082 -9.046187,-23.58295 z"
       id="path28"
       inkscape:path-effect="#path-effect28"
       inkscape:original-d="M 91.565903,103.81266 C 80.363439,92.989945 109.36643,83.971012 118.4803,73.907782 c 9.11387,-10.063231 24.20871,19.794184 36.31307,29.620078 12.10436,9.82589 -20.45874,22.12012 -30.75931,33.32258 -10.30057,11.20246 -21.83531,-21.93025 -32.468157,-33.03778 z" />
  </g>
  <g
     inkscape:groupmode="layer"
     id="layer4"
     inkscape:label="Layer 3">
    <path
       style="opacity:1;fill:#000000;fill-opacity:1"
       d="m 100.39496,93.274753 c 2.57316,-4.508022 6.41747,-8.293535 11.0019,-10.727964 4.58442,-2.434429 9.89731,-3.499565 15.05807,-2.942839 5.97686,0.644764 11.69594,3.490382 15.79511,7.887579 4.09917,4.397196 6.5389,10.311886 6.70476,16.321131 0.15646,5.66844 -1.69743,11.35744 -5.08835,15.90247 -3.39092,4.54504 -8.28631,7.92958 -13.70901,9.58789 -7.17392,2.19384 -15.29096,1.28051 -21.66763,-2.67122 -6.37667,-3.95173 -10.844036,-10.93258 -11.512547,-18.40461 -0.4627,-5.17166 0.843737,-10.443015 3.417697,-14.952437 z"
       id="path29"
       inkscape:path-effect="#path-effect29"
       inkscape:original-d="m 100.39496,93.274753 c 0.94936,-4.984147 17.42078,-9.018933 26.05997,-13.670803 8.63919,-4.651871 14.85751,16.091675 22.49987,24.20871 7.64236,8.11704 -12.53157,16.85117 -18.79736,25.49036 -6.26578,8.63919 -22.07265,-13.95562 -33.180177,-21.07583 -11.107528,-7.12021 2.183531,-9.96829 3.417697,-14.952437 z"
       transform="matrix(1.0013672,0,0,1.0069794,-0.20366416,-0.91059191)" />
  </g>
  <g
     inkscape:groupmode="layer"
     id="layer5"
     inkscape:label="Layer 4">
    <path
       style="opacity:1;fill:#ffffff;fill-opacity:1"
       d="m 109.08162,101.96141 8.18824,8.11704 20.57741,-19.794185 4.12972,4.200924 -24.56472,24.564721 -12.95879,-13.17238 4.20093,-4.05852 z"
       id="path27" />
  </g>
</svg>
